# xmcd
#
# Track frame offsets:
#	150
#	15887
#	33845
#	56077
#	76315
#	104107
#	121455
#	137410
#	150482
#	185040
#	207982
#	225015
#
# Disc length: 3204 seconds
#
# Revision: 0
# Processed by: cddbd v1.4PL0 Copyright (c) Steve Scherf et al.
# Submitted via: EasyCDDAExtractor 5.0.4.1
#
DISCID=8f0c820c
DTITLE=Madder Lake - Best Of
DYEAR=1978
DGENRE=Blues
TTITLE0=Goodbye Lollypop
TTITLE1=Listen to the Morning Sunshine
TTITLE2=Helper
TTITLE3=Song for little Earnest
TTITLE4=Down the River
TTITLE5=12LB Toothbrush
TTITLE6=Butterfly Farm
TTITLE7=Booze Blues
TTITLE8=Mothership
TTITLE9=Slack Alice
TTITLE10=It's all in Your Head
TTITLE11=I get High
EXTD=
EXTT0=
EXTT1=
EXTT2=
EXTT3=
EXTT4=
EXTT5=
EXTT6=
EXTT7=
EXTT8=
EXTT9=
EXTT10=
EXTT11=
PLAYORDER=
